<svg id="Gradient" height="512" viewBox="0 0 512 512" width="512" xmlns="http://www.w3.org/2000/svg" xmlns:xlink="http://www.w3.org/1999/xlink"><linearGradient id="linear-gradient" gradientUnits="userSpaceOnUse" x1="256" x2="256" y1="400" y2="112"><stop offset="0" stop-color="#12c2e9"/><stop offset=".5" stop-color="#c471ed"/><stop offset="1" stop-color="#f64f59"/></linearGradient><path d="m16 152v-32a8 8 0 0 1 8-8h64a8 8 0 0 1 0 16h-56v24a8 8 0 0 1 -16 0zm472-40h-64a8 8 0 0 0 0 16h56v24a8 8 0 0 0 16 0v-32a8 8 0 0 0 -8-8zm0 240a8 8 0 0 0 -8 8v24h-56a8 8 0 0 0 0 16h64a8 8 0 0 0 8-8v-32a8 8 0 0 0 -8-8zm-464 48h64a8 8 0 0 0 0-16h-56v-24a8 8 0 0 0 -16 0v32a8 8 0 0 0 8 8zm464-192h-32v-56a8 8 0 0 0 -16 0v56h-16v-56a8 8 0 0 0 -16 0v56h-48v-56a8 8 0 0 0 -16 0v56h-16v-56a8 8 0 0 0 -16 0v56h-16v-56a8 8 0 0 0 -16 0v56h-16v-56a8 8 0 0 0 -16 0v56h-16v-56a8 8 0 0 0 -16 0v56h-16v-56a8 8 0 0 0 -16 0v56h-16v-56a8 8 0 0 0 -16 0v56h-48v-56a8 8 0 0 0 -16 0v56h-16v-56a8 8 0 0 0 -16 0v56h-32a8 8 0 0 0 0 16h32v136a8 8 0 0 0 16 0v-136h16v136a8 8 0 0 0 16 0v-136h48v120a8 8 0 0 0 16 0v-120h16v120a8 8 0 0 0 16 0v-120h16v120a8 8 0 0 0 16 0v-120h16v120a8 8 0 0 0 16 0v-120h16v120a8 8 0 0 0 16 0v-120h16v120a8 8 0 0 0 16 0v-120h16v120a8 8 0 0 0 16 0v-120h48v136a8 8 0 0 0 16 0v-136h16v136a8 8 0 0 0 16 0v-136h32a8 8 0 0 0 0-16z" fill="url(#linear-gradient)"/></svg>