<svg height="480pt" viewBox="0 0 480 480" width="480pt" xmlns="http://www.w3.org/2000/svg" xmlns:xlink="http://www.w3.org/1999/xlink"><linearGradient id="linear0" gradientUnits="userSpaceOnUse" x1="240" x2="240" y1="480" y2="0"><stop offset="0" stop-color="#12c2e9"/><stop offset=".056" stop-color="#19bfe9"/><stop offset=".137" stop-color="#2db6ea"/><stop offset=".235" stop-color="#4da7ea"/><stop offset=".344" stop-color="#7993eb"/><stop offset=".462" stop-color="#b279ed"/><stop offset=".497" stop-color="#c471ed"/><stop offset="1" stop-color="#f64f59"/></linearGradient><path d="m240 0c-132.546875 0-240 107.453125-240 240s107.453125 240 240 240 240-107.453125 240-240c-.148438-132.484375-107.515625-239.851562-240-240zm0 464c-123.710938 0-224-100.289062-224-224s100.289062-224 224-224 224 100.289062 224 224c-.140625 123.652344-100.347656 223.859375-224 224zm116.648438-254.503906-112-80c-2.78125-1.984375-6.515626-1.984375-9.296876 0l-112 80c-2.824218 2.023437-4.019531 5.636718-2.960937 8.945312 1.0625 3.308594 4.136719 5.554688 7.609375 5.558594h24v120c0 4.417969 3.582031 8 8 8h160c4.417969 0 8-3.582031 8-8v-120h24c3.472656-.003906 6.546875-2.25 7.609375-5.558594 1.058594-3.308594-.136719-6.921875-2.960937-8.945312zm-100.648438 126.503906h-32v-48c0-8.835938 7.164062-16 16-16s16 7.164062 16 16zm56 0h-40v-48c0-17.671875-14.328125-32-32-32s-32 14.328125-32 32v48h-40v-112h144zm8-128h-167.039062l87.039062-62.167969 87.039062 62.167969zm0 0" fill="url(#linear0)"/></svg>