<?xml version="1.0" encoding="iso-8859-1"?>
<!-- Generator: Adobe Illustrator 19.0.0, SVG Export Plug-In . SVG Version: 6.00 Build 0)  -->
<svg version="1.1" id="Layer_1" xmlns="http://www.w3.org/2000/svg" xmlns:xlink="http://www.w3.org/1999/xlink" x="0px" y="0px"
	 viewBox="0 0 512 512" style="enable-background:new 0 0 512 512;" xml:space="preserve">
<g>
	<path style="fill:#B3404A;" d="M15.437,433.936C6.911,433.936,0,427.024,0,418.5V31.042c0-8.524,6.911-15.437,15.437-15.437
		s15.437,6.912,15.437,15.437V418.5C30.873,427.025,23.962,433.936,15.437,433.936z"/>
	<path style="fill:#B3404A;" d="M73.27,355.21c-8.526,0-15.437-6.912-15.437-15.437V31.042c0-8.524,6.911-15.437,15.437-15.437
		s15.437,6.912,15.437,15.437v308.731C88.706,348.299,81.795,355.21,73.27,355.21z"/>
	<path style="fill:#B3404A;" d="M131.103,355.21c-8.526,0-15.437-6.912-15.437-15.437V154.508c0-8.524,6.911-15.437,15.437-15.437
		s15.437,6.912,15.437,15.437v185.265C146.539,348.299,139.628,355.21,131.103,355.21z"/>
	<path style="fill:#B3404A;" d="M131.103,107.276c-8.526,0-15.437-6.912-15.437-15.437V31.042c0-8.524,6.911-15.437,15.437-15.437
		s15.437,6.912,15.437,15.437v60.797C146.539,100.365,139.628,107.276,131.103,107.276z"/>
	<path style="fill:#B3404A;" d="M246.769,162.875c-8.526,0-15.437-6.912-15.437-15.437V31.042c0-8.524,6.911-15.437,15.437-15.437
		c8.526,0,15.437,6.912,15.437,15.437v116.395C262.206,155.962,255.295,162.875,246.769,162.875z"/>
	<path style="fill:#B3404A;" d="M188.936,355.21c-8.526,0-15.437-6.912-15.437-15.437V31.042c0-8.524,6.911-15.437,15.437-15.437
		s15.437,6.912,15.437,15.437v308.731C204.372,348.299,197.461,355.21,188.936,355.21z"/>
</g>
<circle style="fill:#F4B2B0;" cx="356.6" cy="340.993" r="110.464"/>
<path style="fill:#B3404A;" d="M507.479,470.039l-51.618-51.618c17.255-22.031,26.644-48.999,26.644-77.424
	c0-10.92-1.403-21.62-4.083-31.918c0.063-0.567,0.102-1.139,0.102-1.723V31.042c0-8.524-6.911-15.437-15.437-15.437
	s-15.437,6.912-15.437,15.437v223.054c-0.675-0.707-1.328-1.428-2.021-2.121c-12.124-12.124-26.29-21.451-41.714-27.699V31.042
	c0-8.524-6.911-15.437-15.437-15.437c-8.526,0-15.437,6.912-15.437,15.437v185.149c-5.409-0.701-10.89-1.091-16.435-1.091
	c-12.573,0-24.864,1.834-36.568,5.369V31.042c0-8.524-6.911-15.437-15.437-15.437s-15.437,6.912-15.437,15.437V234.68
	c-7.712,4.913-14.96,10.673-21.582,17.295c-1.866,1.866-3.643,3.799-5.378,5.759v-41.233c0-8.524-6.911-15.437-15.437-15.437
	s-15.437,6.912-15.437,15.437v111.87c-0.412,4.169-0.624,8.382-0.624,12.627c0,33.629,13.095,65.246,36.875,89.024
	s55.396,36.875,89.024,36.875c28.425,0,55.391-9.389,77.422-26.644l51.618,51.618c3.015,3.013,6.965,4.521,10.915,4.521
	c3.95,0,7.902-1.508,10.915-4.521C513.507,485.842,513.507,476.067,507.479,470.039z M289.414,408.191
	c-17.948-17.948-27.832-41.81-27.832-67.192c0-25.381,9.884-49.243,27.832-67.191c6.665-6.665,14.151-12.215,22.222-16.562
	c0.179-0.093,0.358-0.184,0.533-0.283c13.529-7.175,28.689-10.988,44.437-10.988c9.296,0,18.382,1.338,27.054,3.901
	c0.262,0.086,0.533,0.159,0.801,0.23c14.697,4.484,28.164,12.528,39.337,23.701c17.947,17.948,27.832,41.81,27.832,67.191
	c0,25.382-9.884,49.244-27.832,67.192s-41.811,27.832-67.192,27.832C331.225,436.023,307.362,426.139,289.414,408.191z"/>
<g>
</g>
<g>
</g>
<g>
</g>
<g>
</g>
<g>
</g>
<g>
</g>
<g>
</g>
<g>
</g>
<g>
</g>
<g>
</g>
<g>
</g>
<g>
</g>
<g>
</g>
<g>
</g>
<g>
</g>
</svg>
